<svg xmlns="http://www.w3.org/2000/svg" width="32" height="28" viewBox="0 0 32 28" fill="none">
<path fill-rule="evenodd" clip-rule="evenodd" d="M30.5242 11.4891C30.5133 11.5129 30.5024 11.5367 30.4922 11.561C30.482 11.5861 30.4739 11.6123 30.4658 11.6385C30.4526 11.681 30.4395 11.7233 30.4172 11.7605C30.3729 11.834 30.3149 11.8958 30.2567 11.9577C30.2401 11.9754 30.2235 11.993 30.2072 12.011C30.1891 12.0298 30.173 12.0504 30.157 12.071C30.1346 12.0997 30.1122 12.1284 30.0842 12.152C30.0002 12.2206 29.9032 12.2683 29.8064 12.3158C29.7995 12.3192 29.7926 12.3226 29.7857 12.326C29.7653 12.3359 29.7459 12.3484 29.7264 12.3609C29.6988 12.3786 29.6711 12.3964 29.6402 12.407C29.4782 12.467 29.3057 12.5 29.1272 12.5C29.0462 12.5 28.9622 12.494 28.8797 12.479L22.5047 11.4215C21.6872 11.2865 21.1352 10.514 21.2702 9.6965C21.4052 8.8805 22.1762 8.321 22.9952 8.4635L25.4612 8.8715C23.5937 5.5925 20.0282 3.5 16.1042 3.5C11.6657 3.5 7.75524 6.077 6.13974 10.0625C5.90424 10.6475 5.34174 11 4.74924 11C4.56174 11 4.37124 10.9655 4.18674 10.8905C3.41874 10.58 3.04824 9.7055 3.36024 8.9375C5.43624 3.812 10.4387 0.5 16.1042 0.5C21.2222 0.5 25.8737 3.305 28.2212 7.682L28.7747 4.7225C28.9277 3.9095 29.7137 3.371 30.5252 3.527C31.3397 3.6785 31.8767 4.463 31.7237 5.2775L30.6002 11.2775C30.5858 11.354 30.555 11.4215 30.5242 11.4891ZM25.8601 17.9378C26.1706 17.1683 27.0466 16.7993 27.8131 17.1098C28.5811 17.4203 28.9516 18.2948 28.6396 19.0628C26.5636 24.1883 21.5611 27.5003 15.8956 27.5003C10.7776 27.5003 6.12609 24.6953 3.77859 20.3183L3.22359 23.2763C3.09009 23.9978 2.46009 24.5003 1.75059 24.5003C1.65909 24.5003 1.56609 24.4913 1.47309 24.4733C0.658592 24.3218 0.123092 23.5373 0.276092 22.7228L1.39959 16.7228C1.41099 16.6639 1.43624 16.6116 1.46161 16.5591C1.47628 16.5287 1.491 16.4982 1.50309 16.4663C1.51495 16.4364 1.52531 16.4055 1.53569 16.3745C1.55812 16.3075 1.58064 16.2402 1.61859 16.1828C1.64073 16.1487 1.66967 16.1213 1.6988 16.0939C1.71703 16.0766 1.73534 16.0594 1.75209 16.0403C1.7653 16.025 1.77837 16.0096 1.79142 15.9942C1.8628 15.9101 1.93355 15.8267 2.02359 15.7658C2.03243 15.7594 2.043 15.7555 2.05344 15.7517C2.06249 15.7484 2.07143 15.7452 2.07909 15.7403C2.22459 15.6458 2.38059 15.5723 2.55309 15.5348C2.5636 15.5324 2.57454 15.533 2.58545 15.5336C2.59479 15.5342 2.6041 15.5347 2.61309 15.5333C2.77809 15.5063 2.94459 15.4898 3.12009 15.5198L9.49509 16.5788C10.3126 16.7123 10.8646 17.4863 10.7296 18.3038C10.6081 19.0373 9.97209 19.5578 9.25059 19.5578C9.16959 19.5578 9.08709 19.5518 9.00459 19.5368L6.53859 19.1288C8.40609 22.4078 11.9716 24.5003 15.8956 24.5003C20.3341 24.5003 24.2446 21.9233 25.8601 17.9378Z" fill="#764AF1"/>
</svg>