<svg xmlns="http://www.w3.org/2000/svg" width="40" height="41" viewBox="0 0 40 41" fill="none">
<path fill-rule="evenodd" clip-rule="evenodd" d="M40 20.96C40 32.0056 31.0457 40.96 20 40.96C8.95431 40.96 0 32.0056 0 20.96C0 9.91427 8.95431 0.959961 20 0.959961C31.0457 0.959961 40 9.91427 40 20.96ZM20.0932 23.8025C23.7794 18.5896 23.9421 15.4303 20.0932 9.84885C16.1708 15.5494 16.6764 18.571 20.0932 23.8025ZM18.3428 30.593C18.9287 24.2353 17.49 21.418 11.366 18.5087C10.8193 25.4067 12.768 27.7707 18.3428 30.593ZM21.8674 30.593C21.2816 24.2353 22.7203 21.418 28.8443 18.5087C29.3909 25.4067 27.4423 27.7707 21.8674 30.593Z" fill="#764AF1"/>
</svg>  