<svg xmlns="http://www.w3.org/2000/svg" width="80" height="80" viewBox="0 0 13 14" fill="none">
<path fill-rule="evenodd" clip-rule="evenodd" d="M0.271534 0.842944H5.43068C5.58065 0.842944 5.70221 0.964507 5.70221 1.11448V6.27362C5.70221 6.42359 5.58065 6.54515 5.43068 6.54515H0.271534C0.121562 6.54515 0 6.42359 0 6.27362V1.11448C0 0.964507 0.121562 0.842944 0.271534 0.842944ZM9.84843 0.413022L12.9205 3.48509C13.0265 3.59112 13.0265 3.76304 12.9205 3.86909L9.84841 6.94113C9.74238 7.04717 9.57046 7.04717 9.46441 6.94113L6.39236 3.86907C6.28633 3.76304 6.28633 3.59112 6.39236 3.48507L9.46443 0.413022C9.57046 0.306988 9.74238 0.306988 9.84843 0.413022ZM0.271534 7.63129H5.43068C5.58065 7.63129 5.70221 7.75285 5.70221 7.90282V13.062C5.70221 13.2119 5.58065 13.3335 5.43068 13.3335H0.271534C0.121562 13.3335 0 13.2119 0 13.062V7.90282C0 7.75285 0.121562 7.63129 0.271534 7.63129ZM7.05988 7.63129H12.219C12.369 7.63129 12.4906 7.75285 12.4906 7.90282V13.062C12.4906 13.2119 12.369 13.3335 12.219 13.3335H7.05988C6.90991 13.3335 6.78834 13.2119 6.78834 13.062V7.90282C6.78834 7.75285 6.90991 7.63129 7.05988 7.63129Z" fill="#764AF1"/>
</svg>