<svg xmlns="http://www.w3.org/2000/svg" width="36" height="36" viewBox="0 0 36 36" fill="black">
<path fill-rule="evenodd" clip-rule="evenodd" d="M22.5 16.5C21.6705 16.5 21 17.172 21 18C21 19.6545 19.6545 21 18 21C16.3455 21 15 19.6545 15 18C15 17.172 14.3295 16.5 13.5 16.5C12.6705 16.5 12 17.172 12 18C12 21.309 14.691 24 18 24C21.309 24 24 21.309 24 18C24 17.172 23.3295 16.5 22.5 16.5ZM27 28.5H9C8.172 28.5 7.5 27.8265 7.5 27V13.5H28.5V27C28.5 27.8265 27.828 28.5 27 28.5ZM12.1815 7.9395C12.462 7.6605 12.8475 7.5 13.242 7.5H22.758C23.1525 7.5 23.538 7.6605 23.8185 7.9395L26.379 10.5H9.621L12.1815 7.9395ZM30.1815 10.0605L25.9395 5.8185C25.0905 4.968 23.9595 4.5 22.758 4.5H13.242C12.0405 4.5 10.9095 4.968 10.0605 5.8185L5.8185 10.0605C4.968 10.9095 4.5 12.0405 4.5 13.2435V27C4.5 29.481 6.519 31.5 9 31.5H27C29.481 31.5 31.5 29.481 31.5 27V13.2435C31.5 12.0405 31.032 10.9095 30.1815 10.0605Z" fill="black"/>
</svg>