<svg xmlns="http://www.w3.org/2000/svg" width="36" height="36" viewBox="0 0 36 36" fill="none">
<path d="M4.5 18C4.5 20.67 5.29176 23.2801 6.77516 25.5002C8.25856 27.7203 10.367 29.4506 12.8338 30.4724C15.3006 31.4942 18.015 31.7615 20.6337 31.2406C23.2525 30.7197 25.6579 29.4339 27.5459 27.5459C29.4339 25.6579 30.7197 23.2525 31.2406 20.6337C31.7615 18.015 31.4942 15.3006 30.4724 12.8338C29.4506 10.367 27.7203 8.25856 25.5002 6.77516C23.2801 5.29176 20.67 4.5 18 4.5C14.2259 4.5142 10.6035 5.98684 7.89 8.61L4.5 12" stroke="#764AF1" stroke-width="3" stroke-linecap="round" stroke-linejoin="round"/>
<path d="M4.5 4.5V12H12M18 10.5V18L24 21" stroke="#764AF1" stroke-width="3" stroke-linecap="round" stroke-linejoin="round"/>
</svg>